<svg height="800" width="800" xmlns="http://www.w3.org/2000/svg" viewBox="0 0 512 512" xml:space="preserve"><path d="M436.212 149.261V73.629c-.008-19.945-16.156-36.103-36.108-36.111H111.899c-19.951.008-36.099 16.167-36.107 36.111v75.632L0 339.112v113.435c.019 12.124 9.803 21.912 21.938 21.935h468.123c12.135-.023 21.92-9.811 21.939-21.935V339.112l-75.788-189.851zM99.866 73.629c.011-6.638 5.395-12.029 12.033-12.037h288.205c6.638.008 12.022 5.399 12.034 12.037v76.502H381.97v-28.072c-.004-19.388-15.712-35.1-35.108-35.108h-46.307c-19.396.008-35.097 15.72-35.104 35.108v28.072h-18.902v-28.072c-.008-19.388-15.708-35.1-35.104-35.108h-46.307c-19.396.008-35.104 15.72-35.108 35.108v28.072H99.866V73.629zm266.055 48.43v28.072h-84.42v-28.072c.019-10.516 8.537-19.043 19.054-19.059h46.307c10.524.017 19.039 8.543 19.059 19.059zm-135.421 0v28.072h-84.42v-28.072c.019-10.516 8.534-19.043 19.059-19.059h46.307c10.515.017 19.034 8.543 19.054 19.059zM94.957 166.18h322.09l8.714 21.833H86.242l8.715-21.833zm-15.121 37.883h352.333L483.8 333.406H28.2l51.636-129.343zm408.09 246.345H24.074V349.456h463.851v100.952z" style="fill:#000"/></svg>